<svg width="103" height="15" viewBox="0 0 103 15" fill="none" xmlns="http://www.w3.org/2000/svg">
<path d="M18.6181 14.2548L10.5718 0.318176H22.0578C23.4791 0.318176 24.5432 0.759491 25.2726 1.48967C26.0019 2.21985 26.2637 3.13725 26.058 4.2606C25.8336 5.40268 25.2352 6.26391 24.2814 6.84431C25.2726 7.53704 25.6922 8.89813 25.4865 10.19C25.1686 12.3805 23.2834 14.2548 20.3473 14.2548H18.6181Z" fill="#F52D56"/>
<path d="M8.9796 0.318176L17.0625 14.3182H11.7094L8.33178 8.40739L4.95419 14.3182H0L3.79149 8.4069L8.33178 8.40739L6.19261 4.66333L8.9796 0.318176Z" fill="#F52D56"/>
<path d="M33.214 14.3182C31.7765 14.3182 30.607 14.0233 29.7053 13.4336C28.8167 12.831 28.2483 12.0169 28 10.9913L30.8618 9.54895C31.2016 10.7541 32.0771 11.3566 33.4884 11.3566C34.6906 11.3566 35.3636 10.9784 35.5073 10.222C35.5857 9.83741 35.4485 9.53613 35.0957 9.31818C34.7559 9.08741 34.1483 8.82459 33.2728 8.52972C31.9791 8.10664 31.0121 7.56818 30.3718 6.91433C29.7445 6.24766 29.5354 5.31818 29.7445 4.12587C29.9536 2.86946 30.5416 1.92074 31.5086 1.27971C32.4756 0.638689 33.5929 0.318176 34.8605 0.318176C35.9843 0.318176 36.9578 0.580997 37.7811 1.10664C38.6174 1.63228 39.212 2.38228 39.5648 3.35664L36.8206 4.77971C36.3371 3.77972 35.5923 3.27972 34.5861 3.27972C34.1156 3.27972 33.7367 3.37587 33.4492 3.56818C33.1748 3.76048 33.0049 4.00407 32.9395 4.29895C32.8611 4.67074 32.9853 4.97843 33.312 5.22202C33.6517 5.45279 34.2332 5.71561 35.0565 6.01048C35.3048 6.10023 35.5073 6.17715 35.6641 6.24125C35.834 6.29254 36.0366 6.36946 36.2718 6.47202C36.507 6.56177 36.6965 6.65151 36.8402 6.74125C36.997 6.81818 37.1734 6.92074 37.3695 7.04895C37.5785 7.16433 37.7419 7.28613 37.8595 7.41433C37.9902 7.54254 38.1208 7.68997 38.2515 7.85664C38.3953 8.01048 38.4998 8.18356 38.5651 8.37587C38.6435 8.55536 38.7089 8.75407 38.7612 8.97202C38.8134 9.17715 38.833 9.40792 38.82 9.66433C38.82 9.92074 38.7938 10.1964 38.7416 10.4913C38.5194 11.722 37.9118 12.6707 36.9186 13.3374C35.9386 13.9913 34.7037 14.3182 33.214 14.3182Z" fill="white"/>
<path d="M48.2516 14.0489L47.9772 11.9336H42.8808L41.7831 14.0489H38.3529L45.429 0.587407H49.4277L51.6818 14.0489H48.2516ZM44.3509 9.04895H47.6243L46.9775 3.95279L44.3509 9.04895Z" fill="white"/>
<path d="M54.9726 14.0489L53.1104 0.587407H56.3839L57.4619 10.4913L62.0683 0.587407H65.6553L58.9712 14.0489H54.9726Z" fill="white"/>
<path d="M72.3513 14.0489L72.0769 11.9336H66.9805L65.8829 14.0489H62.4526L69.5287 0.587407H73.5274L75.7815 14.0489H72.3513ZM68.4506 9.04895H71.7241L71.0772 3.95279L68.4506 9.04895Z" fill="white"/>
<path d="M91.2944 6.54895L91.0983 7.70279C90.7455 9.76689 89.8373 11.3887 88.3737 12.5682C86.9232 13.7348 85.1787 14.3182 83.1402 14.3182C81.0232 14.3182 79.3833 13.6195 78.2202 12.222C77.0703 10.8246 76.6652 9.12587 77.005 7.12587C77.3447 5.15151 78.2725 3.52331 79.7883 2.24125C81.3173 0.959202 83.101 0.318176 85.1395 0.318176C86.4985 0.318176 87.6681 0.600228 88.6482 1.16433C89.6282 1.72843 90.3731 2.5233 90.8827 3.54895L88.0013 5.02972C87.3741 3.88869 86.3091 3.31818 84.8063 3.31818C83.6171 3.31818 82.5913 3.68356 81.7289 4.41433C80.8795 5.1451 80.3502 6.11305 80.1412 7.31818C79.919 8.5233 80.1085 9.49125 80.7096 10.222C81.3238 10.9528 82.2385 11.3182 83.4538 11.3182C85.4139 11.3182 86.7534 10.6259 87.4721 9.24125H83.9438L84.4143 6.54895H91.2944Z" fill="white"/>
<path d="M102.137 3.54895H96.7471L96.3354 5.79895H101.255L100.726 8.68356H95.8258L95.3946 11.0874H100.883L100.354 14.0489H91.7291L94.1401 0.587407H102.667L102.137 3.54895Z" fill="white"/>
</svg>
