<svg width="1440" height="432" viewBox="0 0 1440 432" fill="none" xmlns="http://www.w3.org/2000/svg">
<mask id="mask0" mask-type="alpha" maskUnits="userSpaceOnUse" x="0" y="0" width="1440" height="377">
<rect width="1440" height="377" fill="#C4C4C4"/>
</mask>
<g mask="url(#mask0)">
</g>
<g clip-path="url(#clip0)">
<path fill-rule="evenodd" clip-rule="evenodd" d="M1658.84 446.021C1715.66 521.277 1674.5 573.294 1672.37 635.754C1670.11 702.206 1715.73 792.288 1645.99 822.7C1574.9 853.705 1440.9 835.635 1316.12 791.127C1202.22 750.51 1131.61 656.02 1021.88 600.121C888.697 532.27 723.429 523.057 619.041 436.026C514.222 348.638 491.8 247.786 524.113 185.136C554.735 125.769 698.733 146.333 782.001 120.085C866.275 93.5253 885.662 4.72485 1013.87 30.7605C1141.89 56.7556 1255.98 164.411 1373.78 240.26C1477.43 306.993 1601.1 369.543 1658.84 446.021Z" stroke="url(#paint0_linear)"/>
<path fill-rule="evenodd" clip-rule="evenodd" d="M1599.06 444.314C1649.49 511.125 1612.95 557.309 1611.06 612.759C1609.05 671.76 1649.56 751.731 1587.64 778.736C1524.54 806.257 1405.56 790.212 1294.78 750.705C1193.67 714.64 1130.98 630.753 1033.56 581.126C915.317 520.887 768.591 512.706 675.915 435.444C582.857 357.864 562.951 268.328 591.639 212.705C618.825 159.999 746.666 178.256 820.592 154.953C895.412 131.369 912.624 52.5321 1026.45 75.6461C1140.1 98.7245 1241.39 194.301 1345.98 261.64C1437.99 320.885 1547.79 376.418 1599.06 444.314Z" stroke="url(#paint1_linear)"/>
<path fill-rule="evenodd" clip-rule="evenodd" d="M1537.27 442.551C1581.12 500.636 1549.35 540.78 1547.71 588.992C1545.96 640.289 1581.17 709.817 1527.34 733.296C1472.48 757.223 1369.05 743.272 1272.73 708.919C1184.82 677.566 1130.33 604.639 1045.63 561.496C942.829 509.126 815.267 502.01 734.696 434.839C653.791 367.391 636.484 289.546 661.426 241.191C685.063 195.369 796.206 211.242 860.477 190.982C925.525 170.478 940.489 101.938 1039.45 122.033C1138.25 142.097 1226.32 225.19 1317.24 283.735C1397.24 335.243 1492.7 383.523 1537.27 442.551Z" stroke="url(#paint2_linear)"/>
<path fill-rule="evenodd" clip-rule="evenodd" d="M1479.99 440.917C1517.73 490.912 1490.39 525.473 1488.98 566.963C1487.47 611.123 1517.79 670.964 1471.45 691.17C1424.23 711.767 1335.19 699.757 1252.29 670.192C1176.63 643.205 1129.72 580.432 1056.81 543.29C968.336 498.22 858.536 492.095 789.184 434.279C719.547 376.228 704.65 309.22 726.115 267.6C746.46 228.158 842.126 241.82 897.446 224.382C953.436 206.733 966.315 147.738 1051.49 165.034C1136.54 182.305 1212.34 253.826 1290.6 304.218C1359.46 348.552 1441.63 390.109 1479.99 440.917Z" stroke="url(#paint3_linear)"/>
<path fill-rule="evenodd" clip-rule="evenodd" d="M1420.35 439.215C1451.73 480.787 1429 509.522 1427.82 544.027C1426.56 580.745 1451.77 630.499 1413.24 647.307C1373.98 664.429 1299.95 654.444 1231.01 629.863C1168.09 607.419 1129.09 555.224 1068.47 524.346C994.892 486.863 903.596 481.771 845.926 433.695C788.021 385.421 775.634 329.706 793.483 295.097C810.4 262.301 889.949 273.662 935.949 259.159C982.504 244.484 993.214 195.428 1064.04 209.811C1134.76 224.171 1197.79 283.643 1262.86 325.544C1320.13 362.412 1388.45 396.967 1420.35 439.215Z" stroke="url(#paint4_linear)"/>
</g>
<defs>
<linearGradient id="paint0_linear" x1="1099.61" y1="26.0342" x2="1099.61" y2="838.197" gradientUnits="userSpaceOnUse">
<stop stop-color="#2C3233"/>
<stop offset="1" stop-opacity="0"/>
</linearGradient>
<linearGradient id="paint1_linear" x1="1102.56" y1="71.4502" x2="1102.56" y2="792.49" gradientUnits="userSpaceOnUse">
<stop stop-color="#2C3233"/>
<stop offset="1" stop-opacity="0"/>
</linearGradient>
<linearGradient id="paint2_linear" x1="1105.62" y1="118.385" x2="1105.62" y2="745.253" gradientUnits="userSpaceOnUse">
<stop stop-color="#2C3233"/>
<stop offset="1" stop-opacity="0"/>
</linearGradient>
<linearGradient id="paint3_linear" x1="1108.45" y1="161.895" x2="1108.45" y2="701.463" gradientUnits="userSpaceOnUse">
<stop stop-color="#2C3233"/>
<stop offset="1" stop-opacity="0"/>
</linearGradient>
<linearGradient id="paint4_linear" x1="1111.4" y1="207.2" x2="1111.4" y2="655.863" gradientUnits="userSpaceOnUse">
<stop stop-color="#2C3233"/>
<stop offset="1" stop-opacity="0"/>
</linearGradient>
<clipPath id="clip0">
<rect width="1098" height="406" fill="white" transform="translate(470 26)"/>
</clipPath>
</defs>
</svg>
