<svg width="194" height="36" viewBox="0 0 194 36" fill="none" xmlns="http://www.w3.org/2000/svg">
<path d="M61.4011 5.67432C56.2823 5.37851 53.6901 7.90934 53.6901 12.5437V12.7081H51.3276V16.7837H53.6901V29.142H57.9229V16.7837H61.4011V12.7081H57.9229V12.5437C57.9229 10.5059 59.0714 9.58561 61.4011 9.74994V5.67432Z" fill="white"/>
<path d="M68.5583 29.142V5.14844H64.3255V29.142H68.5583Z" fill="white"/>
<path d="M87.7231 22.667C87.8215 22.0425 87.8871 21.4838 87.8871 20.925C87.8871 18.4599 87.0996 16.4221 85.5246 14.7459C83.9824 13.0696 81.9809 12.2479 79.5856 12.2479C77.059 12.2479 74.959 13.0696 73.3512 14.7459C71.7434 16.3893 70.9231 18.4599 70.9231 20.925C70.9231 23.423 71.7434 25.4937 73.384 27.1371C75.0246 28.7805 77.1903 29.6022 79.9137 29.6022C83.0637 29.6022 85.459 28.4189 87.0668 26.0853L83.6543 24.1132C82.834 25.1979 81.5871 25.7566 79.9793 25.7566C77.4528 25.7566 75.9106 24.7377 75.3528 22.667H87.7231ZM75.2871 19.3802C75.7793 17.2767 77.3215 16.0606 79.5856 16.0606C81.5215 16.0606 83.1621 17.1452 83.6543 19.3802H75.2871Z" fill="white"/>
<path d="M98.3233 20.7278L104.065 12.7081H99.2092L95.8952 17.3424L92.5811 12.7081H87.692L93.4342 20.7607L87.4295 29.142H92.3186L95.8952 24.1461L99.4389 29.142H104.328L98.3233 20.7278Z" fill="white"/>
<path d="M115.989 12.2479C113.692 12.2479 111.92 13.0367 110.674 14.6473V12.7081H106.441V35.7156H110.674V27.2028C111.92 28.8133 113.692 29.6022 115.989 29.6022C118.188 29.6022 120.091 28.7805 121.633 27.1042C123.208 25.4279 123.995 23.3573 123.995 20.925C123.995 18.4928 123.208 16.455 121.633 14.7787C120.091 13.1025 118.188 12.2479 115.989 12.2479ZM111.953 24.2776C111.1 23.3901 110.674 22.2726 110.674 20.925C110.674 19.5775 111.1 18.4599 111.953 17.6054C112.806 16.7179 113.889 16.2907 115.202 16.2907C116.514 16.2907 117.597 16.7179 118.45 17.6054C119.336 18.4599 119.763 19.5775 119.763 20.925C119.763 22.2726 119.336 23.3901 118.45 24.2776C117.597 25.1321 116.514 25.5594 115.202 25.5594C113.889 25.5594 112.806 25.1321 111.953 24.2776Z" fill="white"/>
<path d="M130.557 29.142V5.14844H126.324V29.142H130.557Z" fill="white"/>
<path d="M145.916 14.6473C144.636 13.0367 142.864 12.2479 140.567 12.2479C138.369 12.2479 136.499 13.1025 134.924 14.7787C133.381 16.455 132.594 18.4928 132.594 20.925C132.594 23.3573 133.381 25.4279 134.924 27.1042C136.499 28.7805 138.369 29.6022 140.567 29.6022C142.864 29.6022 144.636 28.8133 145.916 27.2028V29.142H150.149V12.7081H145.916V14.6473ZM138.106 24.2776C137.253 23.3901 136.827 22.2726 136.827 20.925C136.827 19.5775 137.253 18.4599 138.106 17.6054C138.959 16.7179 140.042 16.2907 141.355 16.2907C142.667 16.2907 143.75 16.7179 144.603 17.6054C145.489 18.4599 145.916 19.5775 145.916 20.925C145.916 22.2726 145.489 23.3901 144.603 24.2776C143.75 25.1321 142.667 25.5594 141.355 25.5594C140.042 25.5594 138.959 25.1321 138.106 24.2776Z" fill="white"/>
<path d="M178.727 22.667C178.826 22.0425 178.891 21.4838 178.891 20.925C178.891 18.4599 178.104 16.4221 176.529 14.7459C174.987 13.0696 172.985 12.2479 170.59 12.2479C168.063 12.2479 165.963 13.0696 164.355 14.7459C162.748 16.3893 161.927 18.4599 161.927 20.925C161.927 23.423 162.748 25.4937 164.388 27.1371C166.029 28.7805 168.194 29.6022 170.918 29.6022C174.068 29.6022 176.463 28.4189 178.071 26.0853L174.658 24.1132C173.838 25.1979 172.591 25.7566 170.983 25.7566C168.457 25.7566 166.915 24.7377 166.357 22.667H178.727ZM166.291 19.3802C166.783 17.2767 168.326 16.0606 170.59 16.0606C172.526 16.0606 174.166 17.1452 174.658 19.3802H166.291Z" fill="white"/>
<path d="M185.095 17.3753C185.095 16.5536 185.915 16.0277 186.998 16.0277C188.212 16.0277 189.098 16.5865 189.623 17.704L193.232 15.7319C191.952 13.4969 189.656 12.2479 186.998 12.2479C185.226 12.2479 183.749 12.7081 182.535 13.6612C181.354 14.5815 180.763 15.8634 180.763 17.4739C180.763 20.8922 183.815 21.9111 186.243 22.5356C187.917 22.9628 189.229 23.4559 189.229 24.3433C189.229 25.2965 188.474 25.7566 186.965 25.7566C185.292 25.7566 184.242 25.0335 183.749 23.6202L180.074 25.6909C181.288 28.2874 183.585 29.6022 186.965 29.6022C188.835 29.6022 190.41 29.142 191.657 28.2546C192.937 27.3343 193.56 26.0196 193.56 24.3433C193.593 20.8264 190.476 19.6761 188.081 19.183C186.407 18.7558 185.095 18.2627 185.095 17.3753Z" fill="white"/>
<path d="M160.965 12.7081H157.257V8.10655L153.024 9.3884V23.6202C153.024 28.1231 155.157 29.7994 160.965 29.142V25.2965C158.537 25.4279 157.257 25.3951 157.257 23.6202V16.7837H160.965V12.7081Z" fill="white"/>
<path d="M4.68652 21.8317L20.4769 5.72477L28.372 3.75098L30.3458 11.6461L12.6638 29.8851H4.68652V21.8317Z" fill="url(#paint0_linear)"/>
<path d="M12.6633 5.72363H4.68604V29.884H12.6633V5.72363Z" fill="#FE3347"/>
<path d="M20.6411 13.7773H12.6638V21.8308H20.6411V13.7773Z" fill="#FE3347"/>
<path d="M28.3716 3.75145L20.4764 5.72532L22.4503 13.6204L30.3454 11.6466L28.3716 3.75145Z" fill="#FE3347"/>
<defs>
<linearGradient id="paint0_linear" x1="25.0033" y1="9.37445" x2="4.8108" y2="29.1869" gradientUnits="userSpaceOnUse">
<stop stop-color="#FF4747" stop-opacity="0.42"/>
<stop offset="1" stop-color="#0F0825" stop-opacity="0"/>
</linearGradient>
</defs>
</svg>
